<svg id="visual" viewBox="0 0 900 600" width="900" height="600" xmlns="http://www.w3.org/2000/svg" xmlns:xlink="http://www.w3.org/1999/xlink" version="1.1"><rect x="0" y="0" width="900" height="600" fill="#ffe8d8"></rect><g transform="translate(396.43249798882584 299.25970741131766)"><path d="M238.3 -289.4C309.6 -276.1 368.8 -207.6 371.1 -135.8C373.4 -64.1 318.9 10.9 289.6 91.9C260.3 173 256.2 260 212.2 285.2C168.1 310.4 84.1 273.7 31 231C-22 188.3 -44.1 139.7 -97.3 117.5C-150.6 95.3 -235.1 99.6 -257.5 73.5C-279.9 47.5 -240.3 -8.9 -205.5 -51.5C-170.6 -94.2 -140.6 -123.1 -107.1 -148.8C-73.7 -174.4 -36.8 -196.7 23.3 -228.8C83.5 -260.9 166.9 -302.8 238.3 -289.4" fill="#00154f"></path></g></svg>