<svg id="visual" viewBox="0 0 900 600" width="900" height="600" xmlns="http://www.w3.org/2000/svg" xmlns:xlink="http://www.w3.org/1999/xlink" version="1.1"><rect x="0" y="0" width="900" height="600" fill="#ffe8d8"></rect><path d="M0 415L21.5 412.7C43 410.3 86 405.7 128.8 404.3C171.7 403 214.3 405 257.2 413.8C300 422.7 343 438.3 385.8 450.3C428.7 462.3 471.3 470.7 514.2 459.5C557 448.3 600 417.7 642.8 404.2C685.7 390.7 728.3 394.3 771.2 406.3C814 418.3 857 438.7 878.5 448.8L900 459L900 601L878.5 601C857 601 814 601 771.2 601C728.3 601 685.7 601 642.8 601C600 601 557 601 514.2 601C471.3 601 428.7 601 385.8 601C343 601 300 601 257.2 601C214.3 601 171.7 601 128.8 601C86 601 43 601 21.5 601L0 601Z" fill="#00154f" stroke-linecap="round" stroke-linejoin="miter"></path></svg>