<svg id="visual" viewBox="0 0 900 600" width="900" height="600" xmlns="http://www.w3.org/2000/svg" xmlns:xlink="http://www.w3.org/1999/xlink" version="1.1"><rect x="0" y="0" width="900" height="600" fill="#ffe8d8"></rect><path d="M0 85L21.5 96C43 107 86 129 128.8 129.7C171.7 130.3 214.3 109.7 257.2 110.8C300 112 343 135 385.8 147C428.7 159 471.3 160 514.2 164C557 168 600 175 642.8 183.7C685.7 192.3 728.3 202.7 771.2 203C814 203.3 857 193.7 878.5 188.8L900 184L900 0L878.5 0C857 0 814 0 771.2 0C728.3 0 685.7 0 642.8 0C600 0 557 0 514.2 0C471.3 0 428.7 0 385.8 0C343 0 300 0 257.2 0C214.3 0 171.7 0 128.8 0C86 0 43 0 21.5 0L0 0Z" fill="#00154f" stroke-linecap="round" stroke-linejoin="miter"></path></svg>